# xmcd
#
# Track frame offsets:
#	150
#	16060
#	29668
#	54099
#	75713
#	96039
#	110480
#	122870
#	135248
#	150966
#	170654
#	181533
#	192702
#	205017
#	215220
#	227527
#	237355
#	250085
#	262965
#	276440
#	287190
#
# Disc length: 3998 seconds
#
# Revision: 0
# Processed by: cddbd v1.5.2PL0 Copyright (c) Steve Scherf et al.
# Submitted via: audiograbber 1.83.01
#
DISCID=200f9c15
DTITLE=Various Artist - Boogie Boogie Volume 1
DYEAR=1900
DGENRE=
TTITLE0=Champion Jack Dupree - Alberta
TTITLE1=Champion Jack Dupree - Cabbage Greens
TTITLE2=Champion Jack Dupree - I'm Having Fun
TTITLE3=Champion Jack Dupree - Jack's Boogie
TTITLE4=Champion Jack Dupree - Jit-A-Bug Jump
TTITLE5=Champion Jack Dupree - Nasty Boogie
TTITLE6=Champion Jack Dupree - Pigfoot and A Bottle Of Beer
TTITLE7=Champion Jack Dupree - Shake Dance
TTITLE8=Champion Jack Dupree - When I'm Drinking
TTITLE9=H-Bomb Ferguson - Meatloaf
TTITLE10=H-Bomb Ferguson - Work For Me Baby
TTITLE11=Jimmy Rushing - Hey Miss Bessie
TTITLE12=Ivory Joe Hunter - I Got To Learn To Do The Mambo
TTITLE13=Jimmy Rushing - Did you Ever See Jackie Robinson Hit That Ball
TTITLE14=Jimmy Rushing - Do You Wanna Jump Children
TTITLE15=Jimmy Rushing - Wigglin Blues
TTITLE16=Johnny Ace - No Money
TTITLE17=Johnny Ace And Big Mama Thorton - Yes Baby
TTITLE18=Piano Red - Atlanta Bounce
TTITLE19=Piano Red - Red's Boogie
TTITLE20=Piano Red - Taxi Taxi 6963
EXTD=
EXTT0=
EXTT1=
EXTT2=
EXTT3=
EXTT4=
EXTT5=
EXTT6=
EXTT7=
EXTT8=
EXTT9=
EXTT10=
EXTT11=
EXTT12=
EXTT13=
EXTT14=
EXTT15=
EXTT16=
EXTT17=
EXTT18=
EXTT19=
EXTT20=
PLAYORDER=
